<svg height="24" width="24" xmlns="http://www.w3.org/2000/svg"><g transform="translate(0 -1028.4)"><path d="m12 1029.4c-6.0751 0-11 4.9-11 11 0 6 4.9249 11 11 11 6.075 0 11-5 11-11 0-6.1-4.925-11-11-11zm0 4c3.866 0 7 3.1 7 7 0 3.8-3.134 7-7 7s-7-3.2-7-7c0-3.9 3.134-7 7-7z" fill="#2c3e50"/><path d="m17 1031.7c-4.783-2.8-10.899-1.1-13.66 3.7-2.7617 4.7-1.1229 10.9 3.66 13.6 4.783 2.8 10.899 1.1 13.66-3.6 2.762-4.8 1.123-10.9-3.66-13.7zm-4 6.9c.957.6 1.284 1.8.732 2.8-.552.9-1.775 1.2-2.732.7-.957-.6-1.2843-1.8-.732-2.7.552-1 1.775-1.3 2.732-.8z" fill="#2c3e50"/><path d="m6.0098 1032.3c-2.2488 1.7-3.6216 4.2-3.9375 6.8l7.9647 1c.065-.6.33-1 .782-1.4zm15.913 9.2-7.938-1c-.065.6-.357 1-.808 1.4l4.809 6.4c2.248-1.7 3.621-4.2 3.937-6.8z" fill="#34495e"/><path d="m12 1036.4c-2.2091 0-4 1.8-4 4s1.7909 4 4 4c2.209 0 4-1.8 4-4s-1.791-4-4-4zm0 3c.552 0 1 .4 1 1 0 .5-.448 1-1 1s-1-.5-1-1c0-.6.448-1 1-1z" fill="#f1c40f"/></g></svg>